<?xml version="1.0" encoding="UTF-8"?>
<svg id="Livello_1" xmlns="http://www.w3.org/2000/svg" version="1.1" viewBox="0 0 80 80">
  <!-- Generator: Adobe Illustrator 29.3.0, SVG Export Plug-In . SVG Version: 2.1.0 Build 146)  -->
  <defs>
    <style>
      .st0 {
        fill: #863efa;
      }
    </style>
  </defs>
  <path class="st0" d="M42.78,0l4.5.6c7.05,1.32,13.79,4.53,19.16,9.28.34.3,1.22,1.03,1.43,1.34.06.08.13.09.09.24l-18.7,10.75c-.25.05-.85-.36-1.15-.48-18.26-7.4-35.22,11.99-25.21,28.65,10.05,16.72,35.78,10.47,37.14-9.09.04-.6-.1-1.47,0-2,.03-.13.07-.22.19-.29l18.08-10.45,1.07,4.18.6,4.5v5.54l-.6,4.5c-2.92,16.21-15.9,29.22-32.11,32.12l-4.5.6h-5.53l-4.5-.6C16.54,76.49,3.55,63.48.63,47.27L.03,42.77c.07-1.82-.1-3.72,0-5.54C1.1,17.7,17.74,1.1,37.25,0h5.53Z"/>
</svg>