<?xml version="1.0" encoding="UTF-8"?>
<svg id="Livello_1" xmlns="http://www.w3.org/2000/svg" version="1.1" viewBox="0 0 390.9 73.3">
  <!-- Generator: Adobe Illustrator 29.3.0, SVG Export Plug-In . SVG Version: 2.1.0 Build 146)  -->
  <defs>
    <style>
      .st0 {
        fill: #DEE2E6;
      }
    </style>
  </defs>
  <path class="st0" d="M31.4,0l3.3.4c5.2,1,10.1,3.3,14.1,6.8.2.2.9.8,1,1,0,0,0,0,0,.2l-13.7,7.9c-.2,0-.6-.3-.8-.4-13.4-5.4-25.9,8.8-18.5,21,7.4,12.3,26.3,7.7,27.3-6.7,0-.4,0-1.1,0-1.5,0-.1,0-.2.1-.2l13.3-7.7.8,3.1.4,3.3v4.1l-.4,3.3c-2.1,11.9-11.7,21.5-23.6,23.6l-3.3.4h-4.1l-3.3-.4C12.1,56.2,2.6,46.6.5,34.7L0,31.4c0-1.3,0-2.7,0-4.1C.8,13,13,.8,27.4,0h4.1Z"/>
  <path class="st0" d="M62.4,35.9c0-13.3,10.1-22.9,24.1-22.9s24.1,9.6,24.1,22.9-10.1,22.9-24.1,22.9-24.1-9.6-24.1-22.9ZM86.5,45.5c5.4,0,9.2-3.9,9.2-9.6s-3.9-9.6-9.2-9.6-9.3,3.9-9.3,9.6,3.9,9.6,9.3,9.6h0Z"/>
  <path class="st0" d="M164.9,35.9c0,13.4-9.4,22.9-22.5,22.9s-7.4-1-10.5-2.8v16.9h-14.6V14.4h10.1l1.9,3.4c3.5-3.1,8.1-4.8,13.2-4.8,13.1,0,22.5,9.5,22.5,22.9h0ZM150.1,35.9c0-5.6-4.1-9.8-9.6-9.8s-9.6,4.2-9.6,9.8,4.1,9.8,9.6,9.8,9.6-4.2,9.6-9.8Z"/>
  <path class="st0" d="M214.5,14.4l-18,41c-5.8,13.1-11.1,17.9-22.2,17.9h-5.1v-12.7h4.1c5.6,0,7.4-1.5,9.4-6.8l-17.7-39.4h16.1l9.1,23.6,8.5-23.6s15.9,0,15.9,0Z"/>
  <path class="st0" d="M284.7,30.5v26.9h-14.8v-25.1c0-4.5-1.6-6.6-4.8-6.6s-6.1,2.8-6.1,8.2v23.5h-14.4v-25.1c0-4.4-1.6-6.6-4.7-6.6s-6.2,2.9-6.2,8.2v23.5h-14.8V14.4h10.4l2.1,4.6c3.1-3.6,7.6-5.9,12.5-5.9s9.6,2.3,12.3,6.3c3.1-3.9,7.8-6.3,13.2-6.3,9.2,0,15.3,7.2,15.3,17.3Z"/>
  <path class="st0" d="M339.2,14.4v42.9h-11.4l-1.3-3c-3.5,2.8-8,4.5-13,4.5-13.1,0-22.5-9.6-22.5-22.9s9.4-22.8,22.5-22.8,9.6,1.7,13.1,4.6l1.5-3.3h11ZM325.1,35.9c0-5.6-4.1-9.8-9.6-9.8s-9.6,4.2-9.6,9.8,4.1,9.8,9.6,9.8,9.6-4.2,9.6-9.8Z"/>
  <path class="st0" d="M390.9,31.2v26.2h-14.8v-24.1c0-5-1.9-7.5-5.6-7.5s-7.3,3.2-7.3,8.7v22.9h-14.8V14.4h10.4l2,4.4c3.2-3.6,8-5.7,13.5-5.7,10,0,16.5,7.1,16.5,18Z"/>
</svg>