<?xml version="1.0" encoding="UTF-8"?>
<svg id="Livello_1" xmlns="http://www.w3.org/2000/svg" version="1.1" viewBox="0 0 80 80">
  <!-- Generator: Adobe Illustrator 29.3.0, SVG Export Plug-In . SVG Version: 2.1.0 Build 146)  -->
  <defs>
    <style>
      .st0 {
        fill: #fff;
      }

      .st1 {
        fill: #6610f2;
      }
    </style>
  </defs>
  <circle class="st1" cx="40" cy="40" r="40"/>
  <path class="st0" d="M42.1,9.6l3.4.5c5.3,1,10.5,3.4,14.5,7,.3.2.9.8,1.1,1,0,0,0,0,0,.2l-14.2,8.2c-.2,0-.6-.3-.9-.4-13.9-5.6-26.7,9.1-19.1,21.7,7.6,12.7,27.1,7.9,28.2-6.9,0-.5,0-1.1,0-1.5,0,0,0-.2.1-.2l13.7-7.9.8,3.2.5,3.4v4.2l-.5,3.4c-2.2,12.3-12.1,22.2-24.4,24.4l-3.4.5h-4.2l-3.4-.5c-12.3-2.2-22.1-12.1-24.4-24.4l-.5-3.4c0-1.4,0-2.8,0-4.2.8-14.8,13.4-27.4,28.2-28.2h4.2Z"/>
</svg>